<?xml version="1.0" standalone="no"?>
<!DOCTYPE svg PUBLIC "-//W3C//DTD SVG 20010904//EN"
 "http://www.w3.org/TR/2001/REC-SVG-20010904/DTD/svg10.dtd">
<svg version="1.0" xmlns="http://www.w3.org/2000/svg"
 width="50.000000pt" height="50.000000pt" viewBox="0 0 50.000000 50.000000"
 preserveAspectRatio="xMidYMid meet">

<g transform="translate(0.000000,50.000000) scale(0.100000,-0.100000)"
fill="#2c5386d4" stroke="none">
<path d="M40 401 c-15 -29 -13 -273 3 -294 11 -16 33 -17 217 -15 l205 3 3
154 c2 117 -1 156 -10 163 -7 4 -102 8 -210 8 -185 0 -198 -1 -208 -19z m310
-81 c-46 -44 -89 -80 -96 -80 -9 0 -62 45 -178 151 -6 5 70 9 175 9 l184 -1
-85 -79z m-220 -2 l69 -61 -66 -61 c-36 -34 -70 -62 -74 -64 -5 -2 -9 53 -9
122 0 69 3 126 6 126 3 0 36 -28 74 -62z m330 -63 c0 -69 -3 -125 -6 -125 -3
0 -37 28 -75 63 l-70 62 68 62 c37 34 71 63 76 63 4 0 7 -56 7 -125z m-231
-27 c15 -9 25 -9 46 0 24 11 30 8 95 -53 l69 -65 -186 0 -187 0 69 65 c39 35
71 64 73 65 1 0 11 -5 21 -12z"/>
</g>
</svg>
