<?xml version="1.0" standalone="no"?>
<!DOCTYPE svg PUBLIC "-//W3C//DTD SVG 20010904//EN"
 "http://www.w3.org/TR/2001/REC-SVG-20010904/DTD/svg10.dtd">
<svg version="1.0" xmlns="http://www.w3.org/2000/svg"
 width="50.000000pt" height="50.000000pt" viewBox="0 0 50.000000 50.000000"
 preserveAspectRatio="xMidYMid meet">

<g transform="translate(0.000000,50.000000) scale(0.100000,-0.100000)"
fill="#2c5386d4">
<path d="M251 394 c-96 -29 -181 -60 -189 -67 -26 -27 1 -52 75 -72 37 -10 75
-21 83 -25 8 -5 23 -41 34 -82 10 -40 23 -79 28 -86 15 -18 46 -15 57 5 10 21
111 357 111 373 0 15 -9 13 -199 -46z m64 -64 l-80 -80 -70 21 c-69 21 -94 34
-83 44 5 5 286 93 303 94 5 1 -26 -35 -70 -79z m54 -92 c-23 -79 -48 -149 -55
-157 -10 -11 -16 -1 -33 56 -12 39 -21 79 -21 89 0 18 139 168 148 159 2 -2
-15 -68 -39 -147z"/>
</g>
</svg>
