<?xml version="1.0" standalone="no"?>
<!DOCTYPE svg PUBLIC "-//W3C//DTD SVG 20010904//EN"
 "http://www.w3.org/TR/2001/REC-SVG-20010904/DTD/svg10.dtd">
<svg version="1.0" xmlns="http://www.w3.org/2000/svg"
 width="52.000000pt" height="50.000000pt" viewBox="0 0 52.000000 50.000000"
 preserveAspectRatio="xMidYMid meet">

<g transform="translate(0.000000,50.000000) scale(0.100000,-0.100000)"
fill="#2c5386d4" stroke="none">
<path d="M9 384 c-11 -14 -9 -24 15 -70 62 -118 164 -214 227 -214 42 0 56 13
61 54 5 43 19 41 57 -10 34 -45 34 -45 90 -42 71 4 75 19 23 90 l-39 53 40 58
c51 73 45 92 -29 92 -47 0 -49 -1 -84 -54 -20 -30 -40 -54 -45 -55 -6 0 -12
24 -15 54 l-5 55 -61 3 c-70 3 -93 -12 -75 -47 6 -11 11 -28 11 -38 -1 -16 -2
-16 -18 3 -9 12 -25 36 -34 53 -15 27 -22 31 -61 31 -29 0 -49 -6 -58 -16z
m119 -54 c34 -54 59 -71 73 -49 14 22 10 69 -6 75 -28 11 -4 24 46 24 l49 0 0
-48 c0 -91 40 -96 92 -12 34 55 40 60 72 60 19 0 37 -4 40 -8 3 -5 -13 -34
-36 -66 l-40 -57 38 -57 c22 -31 41 -60 42 -64 2 -5 -16 -8 -40 -8 -41 0 -47
4 -78 45 -23 30 -41 45 -57 45 -22 0 -27 -8 -35 -65 -2 -14 -12 -21 -31 -23
-53 -6 -162 97 -215 204 -24 47 -21 54 23 54 28 0 36 -7 63 -50z"/>
</g>
</svg>
