<?xml version="1.0" standalone="no"?>
<!DOCTYPE svg PUBLIC "-//W3C//DTD SVG 20010904//EN"
 "http://www.w3.org/TR/2001/REC-SVG-20010904/DTD/svg10.dtd">
<svg version="1.0" xmlns="http://www.w3.org/2000/svg"
 width="50.000000pt" height="50.000000pt" viewBox="0 0 50.000000 50.000000"
 preserveAspectRatio="xMidYMid meet">

<g transform="translate(0.000000,50.000000) scale(0.100000,-0.100000)"
fill="#2c5386d4" stroke="none">
<path d="M182 457 c-49 -18 -100 -63 -124 -110 -26 -51 -29 -138 -5 -183 14
-27 14 -36 2 -77 -7 -25 -11 -47 -8 -50 2 -3 23 1 45 9 35 12 46 12 85 -1 87
-30 166 -12 229 51 51 50 68 98 62 175 -10 138 -156 233 -286 186z m151 -21
c73 -30 121 -104 121 -186 0 -68 -31 -128 -87 -167 -49 -34 -134 -43 -190 -20
-27 12 -45 13 -69 6 -18 -5 -34 -9 -35 -9 -1 0 -1 21 0 48 1 26 -5 68 -13 95
-26 87 18 184 102 226 50 24 123 28 171 7z"/>
<path d="M130 358 c-11 -18 -20 -41 -20 -51 0 -20 31 -82 57 -114 60 -71 167
-97 211 -50 31 33 27 55 -13 74 -32 15 -36 15 -54 -1 -24 -22 -48 -15 -86 24
-25 26 -27 33 -17 54 8 19 7 31 -7 57 -25 46 -46 48 -71 7z m55 -12 c13 -19
13 -29 4 -49 -14 -30 0 -54 52 -93 40 -29 47 -30 73 -5 20 19 22 19 45 2 29
-22 23 -47 -15 -61 -58 -23 -154 32 -195 111 -22 44 -23 59 -7 94 14 31 23 32
43 1z"/>
</g>
</svg>
